<?xml version="1.0" encoding="utf-8"?>
<!-- Generator: Adobe Illustrator 18.0.0, SVG Export Plug-In . SVG Version: 6.00 Build 0)  -->
<!DOCTYPE svg PUBLIC "-//W3C//DTD SVG 1.1//EN" "http://www.w3.org/Graphics/SVG/1.1/DTD/svg11.dtd">
<svg version="1.1" id="Layer_1" xmlns="http://www.w3.org/2000/svg" xmlns:xlink="http://www.w3.org/1999/xlink" x="0px" y="0px"
	 viewBox="0 0 1024 1024" enable-background="new 0 0 1024 1024" xml:space="preserve">
<g>
	<path fill="#BE1E2D" d="M1016.4,6v1012H6V6H1016.4 M1022.4,0H0v1024h1022.4V0L1022.4,0z"/>
</g>
<line fill="none" stroke="#BE1E2D" stroke-width="6" stroke-miterlimit="10" x1="190.9" y1="980.1" x2="893.3" y2="43.6"/>
<line fill="none" stroke="#BE1E2D" stroke-width="6" stroke-miterlimit="10" x1="448.3" y1="895.3" x2="351" y2="766.7"/>
<line fill="none" stroke="#BE1E2D" stroke-width="6" stroke-miterlimit="10" x1="254.5" y1="766.7" x2="351" y2="766.7"/>
<line fill="none" stroke="#BE1E2D" stroke-width="6" stroke-miterlimit="10" x1="42.3" y1="446.9" x2="351" y2="766.7"/>
<line fill="none" stroke="#BE1E2D" stroke-width="6" stroke-miterlimit="10" x1="127.1" y1="190.9" x2="351" y2="766.7"/>
<line fill="none" stroke="#BE1E2D" stroke-width="6" stroke-miterlimit="10" x1="288.1" y1="287.8" x2="351" y2="766.7"/>
<line fill="none" stroke="#BE1E2D" stroke-width="6" stroke-miterlimit="10" x1="638.7" y1="127" x2="351" y2="766.7"/>
<line fill="none" stroke="#BE1E2D" stroke-width="6" stroke-miterlimit="10" x1="896.4" y1="257.1" x2="351" y2="766.7"/>
<line fill="none" stroke="#BE1E2D" stroke-width="6" stroke-miterlimit="10" x1="766.4" y1="639.1" x2="351" y2="766.7"/>
<line fill="none" stroke="#BE1E2D" stroke-width="6" stroke-miterlimit="10" x1="980.1" y1="798.1" x2="351" y2="766.7"/>
<line fill="none" stroke="#BE1E2D" stroke-width="6" stroke-miterlimit="10" x1="799.8" y1="980.1" x2="351" y2="766.7"/>
</svg>
